{
	"asset":{
		"generator":"Khronos glTF Blender I/O v5.1.18",
		"version":"2.0"
	},
	"scene":0,
	"scenes":[
		{
			"name":"Scene",
			"nodes":[
				7
			]
		}
	],
	"nodes":[
		{
			"mesh":0,
			"name":"Curve",
			"rotation":[
				0.0004084707179572433,
				0,
				0,
				1
			],
			"translation":[
				-0.0003865226171910763,
				0,
				-0.034564223140478134
			]
		},
		{
			"mesh":1,
			"name":"Curve.001",
			"rotation":[
				0.0004084707179572433,
				0,
				0,
				1
			],
			"translation":[
				0.0003568083920981735,
				0,
				-0.06617031246423721
			]
		},
		{
			"mesh":2,
			"name":"Curve.002",
			"rotation":[
				0.0004084707179572433,
				0,
				0,
				1
			],
			"translation":[
				0.02937009371817112,
				0,
				-0.005302201956510544
			]
		},
		{
			"mesh":3,
			"name":"Curve.003",
			"rotation":[
				0.0004084707179572433,
				0,
				0,
				1
			],
			"translation":[
				0.03290458768606186,
				0,
				-0.032866593450307846
			]
		},
		{
			"mesh":4,
			"name":"Curve.004",
			"rotation":[
				0.0004084707179572433,
				0,
				0,
				1
			],
			"translation":[
				-0.03015006147325039,
				0,
				-0.005308311432600021
			]
		},
		{
			"mesh":5,
			"name":"Curve.005",
			"rotation":[
				0.0004084707179572433,
				0,
				0,
				1
			],
			"translation":[
				-0.031321972608566284,
				0,
				-0.0340469665825367
			]
		},
		{
			"mesh":6,
			"name":"Curve.006",
			"rotation":[
				0.0004084707179572433,
				0,
				0,
				1
			],
			"translation":[
				-0.0003885819169227034,
				0,
				0.026144277304410934
			]
		},
		{
			"children":[
				0,
				1,
				2,
				3,
				4,
				5,
				6
			],
			"mesh":7,
			"name":"Curve.007",
			"rotation":[
				0.7071068286895752,
				0,
				0,
				0.7071068286895752
			],
			"scale":[
				10,
				10,
				10
			],
			"translation":[
				0,
				0.5799999833106995,
				0
			]
		}
	],
	"animations":[
		{
			"channels":[
				{
					"sampler":0,
					"target":{
						"node":7,
						"path":"rotation"
					}
				}
			],
			"name":"Curve.007Action",
			"samplers":[
				{
					"input":40,
					"interpolation":"LINEAR",
					"output":41
				}
			]
		}
	],
	"materials":[
		{
			"doubleSided":true,
			"name":"Material.005",
			"pbrMetallicRoughness":{
				"baseColorFactor":[
					0.0030352699104696512,
					0.4910208582878113,
					0.4620770215988159,
					1
				],
				"metallicFactor":0,
				"roughnessFactor":0.5
			}
		},
		{
			"doubleSided":true,
			"name":"Material.004",
			"pbrMetallicRoughness":{
				"baseColorFactor":[
					0.09305897355079651,
					0.7379107475280762,
					0.6239606738090515,
					1
				],
				"metallicFactor":0,
				"roughnessFactor":0.5
			}
		},
		{
			"doubleSided":true,
			"name":"Material.006",
			"pbrMetallicRoughness":{
				"baseColorFactor":[
					0.0030352699104696512,
					0.4910208582878113,
					0.4620770215988159,
					1
				],
				"metallicFactor":0,
				"roughnessFactor":0.5
			}
		},
		{
			"doubleSided":true,
			"name":"Material.003",
			"pbrMetallicRoughness":{
				"baseColorFactor":[
					0.09305897355079651,
					0.7379107475280762,
					0.6239606738090515,
					1
				],
				"metallicFactor":0,
				"roughnessFactor":0.5
			}
		},
		{
			"doubleSided":true,
			"name":"Material.007",
			"pbrMetallicRoughness":{
				"baseColorFactor":[
					0.0030352699104696512,
					0.4910208582878113,
					0.4620770215988159,
					1
				],
				"metallicFactor":0,
				"roughnessFactor":0.5
			}
		},
		{
			"doubleSided":true,
			"name":"Material.002",
			"pbrMetallicRoughness":{
				"baseColorFactor":[
					0.09305897355079651,
					0.7379107475280762,
					0.6239606738090515,
					1
				],
				"metallicFactor":0,
				"roughnessFactor":0.5
			}
		},
		{
			"doubleSided":true,
			"name":"Material.008",
			"pbrMetallicRoughness":{
				"baseColorFactor":[
					0.0030352699104696512,
					0.4910208582878113,
					0.4620770215988159,
					1
				],
				"metallicFactor":0,
				"roughnessFactor":0.5
			}
		},
		{
			"doubleSided":true,
			"name":"Material.001",
			"pbrMetallicRoughness":{
				"baseColorFactor":[
					0.09305897355079651,
					0.7379107475280762,
					0.6239606738090515,
					1
				],
				"metallicFactor":0,
				"roughnessFactor":0.5
			}
		}
	],
	"meshes":[
		{
			"name":"Curve.008",
			"primitives":[
				{
					"attributes":{
						"POSITION":0,
						"NORMAL":1,
						"TEXCOORD_0":2,
						"TANGENT":3
					},
					"indices":4,
					"material":0
				}
			]
		},
		{
			"name":"Curve.009",
			"primitives":[
				{
					"attributes":{
						"POSITION":5,
						"NORMAL":6,
						"TEXCOORD_0":7,
						"TANGENT":8
					},
					"indices":9,
					"material":1
				}
			]
		},
		{
			"name":"Curve.010",
			"primitives":[
				{
					"attributes":{
						"POSITION":10,
						"NORMAL":11,
						"TEXCOORD_0":12,
						"TANGENT":13
					},
					"indices":14,
					"material":2
				}
			]
		},
		{
			"name":"Curve.011",
			"primitives":[
				{
					"attributes":{
						"POSITION":15,
						"NORMAL":16,
						"TEXCOORD_0":17,
						"TANGENT":18
					},
					"indices":19,
					"material":3
				}
			]
		},
		{
			"name":"Curve.012",
			"primitives":[
				{
					"attributes":{
						"POSITION":20,
						"NORMAL":21,
						"TEXCOORD_0":22,
						"TANGENT":23
					},
					"indices":24,
					"material":4
				}
			]
		},
		{
			"name":"Curve.013",
			"primitives":[
				{
					"attributes":{
						"POSITION":25,
						"NORMAL":26,
						"TEXCOORD_0":27,
						"TANGENT":28
					},
					"indices":29,
					"material":5
				}
			]
		},
		{
			"name":"Curve.014",
			"primitives":[
				{
					"attributes":{
						"POSITION":30,
						"NORMAL":31,
						"TEXCOORD_0":32,
						"TANGENT":33
					},
					"indices":34,
					"material":6
				}
			]
		},
		{
			"name":"Curve.015",
			"primitives":[
				{
					"attributes":{
						"POSITION":35,
						"NORMAL":36,
						"TEXCOORD_0":37,
						"TANGENT":38
					},
					"indices":39,
					"material":7
				}
			]
		}
	],
	"accessors":[
		{
			"bufferView":0,
			"componentType":5126,
			"count":1346,
			"max":[
				0.02012285403907299,
				0.004999999888241291,
				0.019424935802817345
			],
			"min":[
				-0.020116794854402542,
				-0.004999999888241291,
				-0.019094914197921753
			],
			"type":"VEC3"
		},
		{
			"bufferView":1,
			"componentType":5126,
			"count":1346,
			"type":"VEC3"
		},
		{
			"bufferView":2,
			"componentType":5126,
			"count":1346,
			"type":"VEC2"
		},
		{
			"bufferView":3,
			"componentType":5126,
			"count":1346,
			"type":"VEC4"
		},
		{
			"bufferView":4,
			"componentType":5123,
			"count":4020,
			"type":"SCALAR"
		},
		{
			"bufferView":5,
			"componentType":5126,
			"count":434,
			"max":[
				0.009707937948405743,
				0.004999999888241291,
				0.011174572631716728
			],
			"min":[
				-0.011176933534443378,
				-0.004999999888241291,
				-0.009705888107419014
			],
			"type":"VEC3"
		},
		{
			"bufferView":6,
			"componentType":5126,
			"count":434,
			"type":"VEC3"
		},
		{
			"bufferView":7,
			"componentType":5126,
			"count":434,
			"type":"VEC2"
		},
		{
			"bufferView":8,
			"componentType":5126,
			"count":434,
			"type":"VEC4"
		},
		{
			"bufferView":9,
			"componentType":5123,
			"count":1284,
			"type":"SCALAR"
		},
		{
			"bufferView":10,
			"componentType":5126,
			"count":918,
			"max":[
				0.030855350196361542,
				0.004999999888241291,
				0.029785364866256714
			],
			"min":[
				-0.01813790574669838,
				-0.004999999888241291,
				-0.016479190438985825
			],
			"type":"VEC3"
		},
		{
			"bufferView":11,
			"componentType":5126,
			"count":918,
			"type":"VEC3"
		},
		{
			"bufferView":12,
			"componentType":5126,
			"count":918,
			"type":"VEC2"
		},
		{
			"bufferView":13,
			"componentType":5126,
			"count":918,
			"type":"VEC4"
		},
		{
			"bufferView":14,
			"componentType":5123,
			"count":2736,
			"type":"SCALAR"
		},
		{
			"bufferView":15,
			"componentType":5126,
			"count":466,
			"max":[
				0.009111184626817703,
				0.004999999888241291,
				0.00971236452460289
			],
			"min":[
				-0.011784981936216354,
				-0.004999999888241291,
				-0.011189506389200687
			],
			"type":"VEC3"
		},
		{
			"bufferView":16,
			"componentType":5126,
			"count":466,
			"type":"VEC3"
		},
		{
			"bufferView":17,
			"componentType":5126,
			"count":466,
			"type":"VEC2"
		},
		{
			"bufferView":18,
			"componentType":5126,
			"count":466,
			"type":"VEC4"
		},
		{
			"bufferView":19,
			"componentType":5123,
			"count":1380,
			"type":"SCALAR"
		},
		{
			"bufferView":20,
			"componentType":5126,
			"count":918,
			"max":[
				0.01813991740345955,
				0.004999999888241291,
				0.02978583425283432
			],
			"min":[
				-0.030859215185046196,
				-0.004999999888241291,
				-0.016481230035424232
			],
			"type":"VEC3"
		},
		{
			"bufferView":21,
			"componentType":5126,
			"count":918,
			"type":"VEC3"
		},
		{
			"bufferView":22,
			"componentType":5126,
			"count":918,
			"type":"VEC2"
		},
		{
			"bufferView":23,
			"componentType":5126,
			"count":918,
			"type":"VEC4"
		},
		{
			"bufferView":24,
			"componentType":5123,
			"count":2736,
			"type":"SCALAR"
		},
		{
			"bufferView":25,
			"componentType":5126,
			"count":434,
			"max":[
				0.009432879276573658,
				0.004999999888241291,
				0.01088541466742754
			],
			"min":[
				-0.011485814116895199,
				-0.004999999888241291,
				-0.010028782300651073
			],
			"type":"VEC3"
		},
		{
			"bufferView":26,
			"componentType":5126,
			"count":434,
			"type":"VEC3"
		},
		{
			"bufferView":27,
			"componentType":5126,
			"count":434,
			"type":"VEC2"
		},
		{
			"bufferView":28,
			"componentType":5126,
			"count":434,
			"type":"VEC4"
		},
		{
			"bufferView":29,
			"componentType":5123,
			"count":1284,
			"type":"SCALAR"
		},
		{
			"bufferView":30,
			"componentType":5126,
			"count":822,
			"max":[
				0.028671465814113617,
				0.004999999888241291,
				0.030283160507678986
			],
			"min":[
				-0.028676485642790794,
				-0.004999999888241291,
				-0.015734674409031868
			],
			"type":"VEC3"
		},
		{
			"bufferView":31,
			"componentType":5126,
			"count":822,
			"type":"VEC3"
		},
		{
			"bufferView":32,
			"componentType":5126,
			"count":822,
			"type":"VEC2"
		},
		{
			"bufferView":33,
			"componentType":5126,
			"count":822,
			"type":"VEC4"
		},
		{
			"bufferView":34,
			"componentType":5123,
			"count":2448,
			"type":"SCALAR"
		},
		{
			"bufferView":35,
			"componentType":5126,
			"count":530,
			"max":[
				0.010064749047160149,
				0.004999999888241291,
				0.009237010031938553
			],
			"min":[
				-0.01081994827836752,
				-0.004999999888241291,
				-0.011603166349232197
			],
			"type":"VEC3"
		},
		{
			"bufferView":36,
			"componentType":5126,
			"count":530,
			"type":"VEC3"
		},
		{
			"bufferView":37,
			"componentType":5126,
			"count":530,
			"type":"VEC2"
		},
		{
			"bufferView":38,
			"componentType":5126,
			"count":530,
			"type":"VEC4"
		},
		{
			"bufferView":39,
			"componentType":5123,
			"count":1572,
			"type":"SCALAR"
		},
		{
			"bufferView":40,
			"componentType":5126,
			"count":251,
			"max":[
				10.416666666666666
			],
			"min":[
				0
			],
			"type":"SCALAR"
		},
		{
			"bufferView":41,
			"componentType":5126,
			"count":251,
			"type":"VEC4"
		}
	],
	"bufferViews":[
		{
			"buffer":0,
			"byteLength":16152,
			"byteOffset":0,
			"target":34962
		},
		{
			"buffer":0,
			"byteLength":16152,
			"byteOffset":16152,
			"target":34962
		},
		{
			"buffer":0,
			"byteLength":10768,
			"byteOffset":32304,
			"target":34962
		},
		{
			"buffer":0,
			"byteLength":21536,
			"byteOffset":43072,
			"target":34962
		},
		{
			"buffer":0,
			"byteLength":8040,
			"byteOffset":64608,
			"target":34963
		},
		{
			"buffer":0,
			"byteLength":5208,
			"byteOffset":72648,
			"target":34962
		},
		{
			"buffer":0,
			"byteLength":5208,
			"byteOffset":77856,
			"target":34962
		},
		{
			"buffer":0,
			"byteLength":3472,
			"byteOffset":83064,
			"target":34962
		},
		{
			"buffer":0,
			"byteLength":6944,
			"byteOffset":86536,
			"target":34962
		},
		{
			"buffer":0,
			"byteLength":2568,
			"byteOffset":93480,
			"target":34963
		},
		{
			"buffer":0,
			"byteLength":11016,
			"byteOffset":96048,
			"target":34962
		},
		{
			"buffer":0,
			"byteLength":11016,
			"byteOffset":107064,
			"target":34962
		},
		{
			"buffer":0,
			"byteLength":7344,
			"byteOffset":118080,
			"target":34962
		},
		{
			"buffer":0,
			"byteLength":14688,
			"byteOffset":125424,
			"target":34962
		},
		{
			"buffer":0,
			"byteLength":5472,
			"byteOffset":140112,
			"target":34963
		},
		{
			"buffer":0,
			"byteLength":5592,
			"byteOffset":145584,
			"target":34962
		},
		{
			"buffer":0,
			"byteLength":5592,
			"byteOffset":151176,
			"target":34962
		},
		{
			"buffer":0,
			"byteLength":3728,
			"byteOffset":156768,
			"target":34962
		},
		{
			"buffer":0,
			"byteLength":7456,
			"byteOffset":160496,
			"target":34962
		},
		{
			"buffer":0,
			"byteLength":2760,
			"byteOffset":167952,
			"target":34963
		},
		{
			"buffer":0,
			"byteLength":11016,
			"byteOffset":170712,
			"target":34962
		},
		{
			"buffer":0,
			"byteLength":11016,
			"byteOffset":181728,
			"target":34962
		},
		{
			"buffer":0,
			"byteLength":7344,
			"byteOffset":192744,
			"target":34962
		},
		{
			"buffer":0,
			"byteLength":14688,
			"byteOffset":200088,
			"target":34962
		},
		{
			"buffer":0,
			"byteLength":5472,
			"byteOffset":214776,
			"target":34963
		},
		{
			"buffer":0,
			"byteLength":5208,
			"byteOffset":220248,
			"target":34962
		},
		{
			"buffer":0,
			"byteLength":5208,
			"byteOffset":225456,
			"target":34962
		},
		{
			"buffer":0,
			"byteLength":3472,
			"byteOffset":230664,
			"target":34962
		},
		{
			"buffer":0,
			"byteLength":6944,
			"byteOffset":234136,
			"target":34962
		},
		{
			"buffer":0,
			"byteLength":2568,
			"byteOffset":241080,
			"target":34963
		},
		{
			"buffer":0,
			"byteLength":9864,
			"byteOffset":243648,
			"target":34962
		},
		{
			"buffer":0,
			"byteLength":9864,
			"byteOffset":253512,
			"target":34962
		},
		{
			"buffer":0,
			"byteLength":6576,
			"byteOffset":263376,
			"target":34962
		},
		{
			"buffer":0,
			"byteLength":13152,
			"byteOffset":269952,
			"target":34962
		},
		{
			"buffer":0,
			"byteLength":4896,
			"byteOffset":283104,
			"target":34963
		},
		{
			"buffer":0,
			"byteLength":6360,
			"byteOffset":288000,
			"target":34962
		},
		{
			"buffer":0,
			"byteLength":6360,
			"byteOffset":294360,
			"target":34962
		},
		{
			"buffer":0,
			"byteLength":4240,
			"byteOffset":300720,
			"target":34962
		},
		{
			"buffer":0,
			"byteLength":8480,
			"byteOffset":304960,
			"target":34962
		},
		{
			"buffer":0,
			"byteLength":3144,
			"byteOffset":313440,
			"target":34963
		},
		{
			"buffer":0,
			"byteLength":1004,
			"byteOffset":316584
		},
		{
			"buffer":0,
			"byteLength":4016,
			"byteOffset":317588
		}
	],
	"buffers":[
		{
			"byteLength":321604,
			"uri":"logo_model.bin"
		}
	]
}
