<svg xmlns="http://www.w3.org/2000/svg" viewBox="0 0 1367.32 468.86"><defs><style>.cls-1{fill:#0abab5;}.cls-2{fill:#56dfcf;}.cls-3{fill:#011936;}</style></defs><g id="Layer_2" data-name="Layer 2"><g id="Layer_1-2" data-name="Layer 1"><path class="cls-1" d="M272.45,149.77a55,55,0,0,0,5.95,25,7.5,7.5,0,0,1-1.47,8.67L247.33,213a7.5,7.5,0,0,1-8.54,1.52,55.59,55.59,0,0,0-48,0A7.5,7.5,0,0,1,182.2,213l-29.6-29.59a7.5,7.5,0,0,1-1.47-8.67,55.44,55.44,0,0,0-5.95-59.34,7.64,7.64,0,0,1,.5-10.17L170,80.94a7.65,7.65,0,0,1,10.21-.48,55.47,55.47,0,0,0,69.14,0,7.64,7.64,0,0,1,10.2.48l24.31,24.31a7.66,7.66,0,0,1,.51,10.17A55.18,55.18,0,0,0,272.45,149.77Z"/><path class="cls-2" d="M251.79,37a37,37,0,1,1-37-37A36.75,36.75,0,0,1,251.79,37Z"/><path class="cls-1" d="M427.32,259.45l-94,94a7.6,7.6,0,0,1-10.74,0l-56.25-56.25a7.52,7.52,0,0,1-1.52-8.55,55.52,55.52,0,0,0-7.1-59.18,7.63,7.63,0,0,1,.42-10.27l25.28-25.28a7.63,7.63,0,0,1,10.17-.51,55.55,55.55,0,0,0,68.74,0,7.62,7.62,0,0,1,10.16.51l54.81,54.81A7.59,7.59,0,0,1,427.32,259.45Z"/><path class="cls-2" d="M365,149.77a37,37,0,0,1-63.4,26,36.77,36.77,0,0,1-10.64-26,37,37,0,1,1,74,0Z"/><path class="cls-1" d="M146.09,193.9l25.28,25.28a7.63,7.63,0,0,1,.42,10.27,55.52,55.52,0,0,0-7.1,59.18,7.52,7.52,0,0,1-1.52,8.55l-56.25,56.25a7.6,7.6,0,0,1-10.74,0l-94-94a7.6,7.6,0,0,1,0-10.74L57,193.9a7.63,7.63,0,0,1,10.17-.51,55.53,55.53,0,0,0,68.73,0A7.63,7.63,0,0,1,146.09,193.9Z"/><path class="cls-2" d="M138.57,149.77a37.06,37.06,0,1,1-11-26.36A37.11,37.11,0,0,1,138.57,149.77Z"/><path class="cls-1" d="M314.11,372.66l-94,94a7.6,7.6,0,0,1-10.74,0l-94-94a7.59,7.59,0,0,1,0-10.74L169.33,308a7.64,7.64,0,0,1,10.28-.42,55.49,55.49,0,0,0,70.32,0,7.63,7.63,0,0,1,10.27.42l53.91,53.91A7.59,7.59,0,0,1,314.11,372.66Z"/><path class="cls-2" d="M251.79,264.61a37,37,0,0,1-3.11,14.89,37.55,37.55,0,0,1-6.74,10.25,37,37,0,0,1-54.35,0,37.55,37.55,0,0,1-6.74-10.25,37,37,0,1,1,70.94-14.89Z"/><path class="cls-1" d="M716.51,78.38A25.65,25.65,0,0,1,742.11,104v27H560.33v23.49H716.51a25.65,25.65,0,0,1,25.6,25.61V257.5a25.65,25.65,0,0,1-25.6,25.6H533.35a25.65,25.65,0,0,1-25.6-25.6v-27H689.53V207H533.35a25.65,25.65,0,0,1-25.6-25.6V104a25.66,25.66,0,0,1,25.6-25.61Z"/><path class="cls-1" d="M834.07,257.5a25.65,25.65,0,0,1-25.61,25.6h-27V104a25.65,25.65,0,0,1,25.6-25.61h27Z"/><path class="cls-1" d="M925.89,230.52h156.18a25.65,25.65,0,0,1,25.61,25.61v27H898.92a25.65,25.65,0,0,1-25.6-25.6V78.38h27A25.65,25.65,0,0,1,925.89,104Z"/><path class="cls-1" d="M1267.86,207l-27.64-52.79L1180,269.37a25.06,25.06,0,0,1-22.69,13.73h-43.85l100-191a25.06,25.06,0,0,1,22.68-13.73h8.28a25.09,25.09,0,0,1,22.69,13.73l100,191h-43.85a25,25,0,0,1-22.68-13.73l-5.11-9.77h-90.19l19.25-38.44A25.08,25.08,0,0,1,1247.33,207Z"/><path class="cls-3" d="M541.75,383.44h-7.1V321.93h-26.9v-6.5h60.9v6.5h-26.9Z"/><path class="cls-3" d="M634.87,357.63a30.8,30.8,0,0,1-.4,5.31H596c1.1,9.5,7.7,15.8,17.9,15.8,5.9,0,10.7-1,17-2.6l1.1,5.6c-6,1.8-11.2,3.2-18.3,3.2-15.8,0-25-10.3-25-24.7,0-14.81,10-24.51,24-24.51C625.67,335.73,634.77,344.13,634.87,357.63Zm-39.1-.09h32.8c-.1-10.11-6.4-16.21-15.7-16.21C603,341.33,596.57,347.73,595.77,357.54Z"/><path class="cls-3" d="M704.7,343.53a62.54,62.54,0,0,0-14.4-2.1c-11.7,0-19.4,7.5-19.4,18.81s7.8,18.7,18.6,18.7c4.1,0,10.3-1.1,16-2.6l1.2,5.7a63.38,63.38,0,0,1-17.4,2.9c-14.9,0-25.3-9.8-25.3-24.81s10.5-24.6,25.9-24.6a53.74,53.74,0,0,1,15.8,2.5Z"/><path class="cls-3" d="M781,354.63v28.81h-6.8v-27.2c0-8.91-5-14.21-13.2-14.21a65.19,65.19,0,0,0-17.3,2.1v39.31h-6.8v-71h6.8v25.5a72.78,72.78,0,0,1,18.5-2.2C773.87,335.73,781,342.83,781,354.63Z"/><path class="cls-3" d="M854.6,354.63v28.81h-6.9v-27.2c0-8.91-5-14.21-13.2-14.21a97.75,97.75,0,0,0-17.2,1.4v40h-6.91V338.23a133.29,133.29,0,0,1,25.31-2.5C847.4,335.73,854.6,342.83,854.6,354.63Z"/><path class="cls-3" d="M931.37,360.13C931.37,375,921,385,906.07,385s-25.3-10-25.3-24.91,10.5-24.7,25.3-24.7S931.37,345.33,931.37,360.13Zm-7,0c0-11.1-7.5-18.4-18.3-18.4s-18.3,7.3-18.3,18.4,7.6,18.71,18.3,18.71S924.37,371.34,924.37,360.13Z"/><path class="cls-3" d="M983,383.44h-6.8v-71H983Z"/><path class="cls-3" d="M1078.52,360.13c0,14.91-10.4,24.91-25.3,24.91s-25.3-10-25.3-24.91,10.5-24.7,25.3-24.7S1078.52,345.33,1078.52,360.13Zm-7,0c0-11.1-7.5-18.4-18.3-18.4s-18.3,7.3-18.3,18.4,7.6,18.71,18.3,18.71S1071.52,371.34,1071.52,360.13Z"/><path class="cls-3" d="M1150.34,338.23v44.21c0,15.4-9.2,25.8-25,25.8a47.17,47.17,0,0,1-17.3-3.5l1.3-5.6a54.39,54.39,0,0,0,15.9,2.9c11.1,0,18.2-7.2,18.3-19.5a79.55,79.55,0,0,1-17.3,1.4c-13.8,0-23-9.9-23-23.81,0-14.6,8.9-24.4,23.5-24.4A101.68,101.68,0,0,1,1150.34,338.23ZM1110,360.34c0,10.1,6.7,17.7,17.1,17.7a71.64,71.64,0,0,0,16.4-1.4V342.93a98.55,98.55,0,0,0-16-1.3C1116,341.63,1110,349.33,1110,360.34Z"/><path class="cls-3" d="M1195.37,320.53a5,5,0,1,1,5,4.9A4.89,4.89,0,0,1,1195.37,320.53Zm8.5,62.91H1197V337.23h6.9Z"/><path class="cls-3" d="M1297,357.63a30.8,30.8,0,0,1-.4,5.31h-38.5c1.1,9.5,7.7,15.8,17.9,15.8,5.9,0,10.7-1,17-2.6l1.1,5.6c-6,1.8-11.2,3.2-18.3,3.2-15.8,0-25-10.3-25-24.7,0-14.81,10-24.51,24-24.51C1287.84,335.73,1296.94,344.13,1297,357.63Zm-39.1-.09h32.8c-.1-10.11-6.4-16.21-15.7-16.21C1265.14,341.33,1258.74,347.73,1257.94,357.54Z"/><path class="cls-3" d="M1329.31,374.64c6.71,2.9,13.8,4.6,19.41,4.6,7.1,0,12.2-2.8,12.2-8,0-5.9-6.9-7-15.9-8.9-10.11-2.1-15.31-5.21-15.31-12.81,0-8.7,6.9-13.7,18.31-13.7a57,57,0,0,1,17.8,3.2l-1.7,5.4a59.63,59.63,0,0,0-16.6-3c-7.11,0-11.11,2.7-11.11,7.8,0,4.81,4.2,5.9,12.41,7.81,10.9,2.39,18.5,4.5,18.5,13.6,0,9.5-7.8,14.3-19,14.3a55.68,55.68,0,0,1-20.6-4.6Z"/></g></g></svg>